<svg id="Capa_1" data-name="Capa 1" xmlns="http://www.w3.org/2000/svg" xmlns:xlink="http://www.w3.org/1999/xlink" viewBox="0 0 5638.29 1687.86"><defs><style>.cls-1{fill:url(#Degradado_sin_nombre_9);}.cls-2{fill:#f7b8c9;}.cls-3{fill:#f7acc0;}.cls-4{fill:#f2849d;}.cls-5{fill:#f2859c;}.cls-6{fill:#f1869d;}.cls-7{fill:#f3748f;}.cls-13,.cls-8,.cls-9{fill:#ee4575;}.cls-10,.cls-11,.cls-13,.cls-9{stroke:#ee4575;stroke-linecap:round;stroke-linejoin:round;}.cls-11,.cls-9{stroke-width:25px;}.cls-10,.cls-11{fill:none;}.cls-10{stroke-width:35px;}.cls-12{opacity:0.13;}.cls-13{stroke-width:16.83px;}</style><linearGradient id="Degradado_sin_nombre_9" x1="2745.55" y1="2162.86" x2="2818.27" y2="-554.92" gradientUnits="userSpaceOnUse"><stop offset="0.21" stop-color="#fdbe81"/><stop offset="0.33" stop-color="#fdbe81"/><stop offset="0.4" stop-color="#fcbe77"/><stop offset="0.59" stop-color="#f9bd63"/><stop offset="0.6" stop-color="#f8ba6d"/><stop offset="0.66" stop-color="#f5b288"/><stop offset="0.71" stop-color="#f3ac9b"/><stop offset="0.77" stop-color="#f2a8a6"/><stop offset="0.83" stop-color="#f2a7aa"/></linearGradient></defs><rect class="cls-1" x="-75.43" y="-76.29" width="5713.71" height="1796.57"/><path class="cls-2" d="M-171.4,624.89c60.29-70.81,466-535.44,900.66-466.14,132.82,21.17,291.42,95.87,315,107.09,273.66,130.37,292.6,245.64,441,302.36,239.12,91.43,370.73-139,894.49-296.06,211-63.29,537.53-161.25,913.39-88.19,337.22,65.54,357.89,199.49,730.71,264.57,146.52,25.57,420.17,70,724.42-37.8C5141.85,271.18,5643.71,39.53,5720.08-89l-146.7,1898.2L-725.86,1651.67l69.29-1052Z"/><path class="cls-3" d="M-1049.64,1344.85C-893.53,1227.78,518,185,1389.63,302.84c149.8,20.25,268.4,55.25,268.4,55.25,621.75,183.48,667.88,594.16,1073.6,710.47,458.83,131.54,968.65-230.63,1255.15-434.17C4384.33,352,4392.46,172.93,4610.42,105.48c296.05-91.61,796.1,79.35,1691.72,1225.72l-105,1308.28-7988.81,134.2Z"/><path class="cls-4" d="M6384.75,532.55C4939,307.62,4053.94,493.69,3503.39,720.65c-69.33,28.58-335.37,141.08-709.65,256.5-636.43,196.25-1196,759.76-1749.82,565.85-271.05-94.92-270.68-573.93-541.59-711.2-842.94-427.13-2046.49-163.93-2847.16,436.05C-2848.19,1645-3134.07,2111.7-3293.88,2456.3l7293.17,205.2L7231.2,3046.26Z"/><polygon class="cls-5" points="2706.96 1020.13 2706.96 927.56 2746.39 927.56 2746.39 1013.27 2706.96 1020.13"/><ellipse class="cls-6" cx="2726.68" cy="905.28" rx="108" ry="29.14"/><polygon class="cls-5" points="2886.96 964.17 2886.96 783.17 2926.39 783.17 2926.39 950.76 2886.96 964.17"/><ellipse class="cls-6" cx="2906.68" cy="762.91" rx="148.18" ry="39.98"/><polygon class="cls-5" points="1185.37 1596.34 1185.37 1533.3 1212.22 1533.3 1212.22 1591.67 1185.37 1596.34"/><ellipse class="cls-6" cx="1198.8" cy="1518.13" rx="73.54" ry="19.84"/><polygon class="cls-5" points="1303.26 1603.62 1303.26 1475.34 1331.2 1475.34 1331.2 1594.12 1303.26 1603.62"/><ellipse class="cls-6" cx="1317.23" cy="1460.98" rx="105.01" ry="28.34"/><polygon class="cls-5" points="320.61 785.39 320.61 722.36 347.46 722.36 347.46 780.72 320.61 785.39"/><ellipse class="cls-6" cx="334.03" cy="707.19" rx="73.54" ry="19.84"/><polygon class="cls-5" points="454.08 824.15 470.47 696.93 498.19 700.5 481.3 831.53 454.08 824.15"/><ellipse class="cls-6" cx="486.17" cy="684.47" rx="28.34" ry="105.01" transform="translate(-254.82 1079.18) rotate(-82.66)"/><polygon class="cls-5" points="4139.25 559.44 4125.74 467.86 4086.73 473.61 4099.24 558.41 4139.25 559.44"/><ellipse class="cls-6" cx="4102.98" cy="448.69" rx="108" ry="29.14" transform="translate(-21.55 603.78) rotate(-8.39)"/><polygon class="cls-5" points="3929.01 594.88 3902.59 415.82 3863.58 421.58 3888.05 587.37 3929.01 594.88"/><ellipse class="cls-6" cx="3880.12" cy="398.65" rx="148.18" ry="39.98" transform="matrix(0.99, -0.15, 0.15, 0.99, -16.63, 570.71)"/><polygon class="cls-5" points="5218.99 469.36 5213.33 376.96 5252.68 374.55 5257.92 460.1 5218.99 469.36"/><ellipse class="cls-6" cx="5231.64" cy="353.51" rx="108" ry="29.14" transform="translate(-11.83 320.67) rotate(-3.51)"/><polygon class="cls-5" points="5432.02 460.68 5420.95 280.02 5460.3 277.61 5470.55 444.89 5432.02 460.68"/><ellipse class="cls-6" cx="5439.39" cy="258.59" rx="148.18" ry="39.98" transform="translate(-5.63 333.2) rotate(-3.51)"/><polygon class="cls-5" points="1995.35 1380.24 1967.42 1238.25 2027.9 1226.35 2053.76 1357.83 1995.35 1380.24"/><ellipse class="cls-6" cx="1990.94" cy="1198.12" rx="168.83" ry="45.56" transform="translate(-193.77 406.69) rotate(-11.13)"/><polygon class="cls-5" points="2307.76 1195.56 2290.45 913.15 2351.97 909.38 2367.99 1170.87 2307.76 1195.56"/><ellipse class="cls-6" cx="2319.27" cy="879.64" rx="231.64" ry="62.51" transform="translate(-49.46 143.51) rotate(-3.51)"/><polygon class="cls-3" points="1419.98 332.7 1426.05 240.33 1386.7 237.74 1381.09 323.27 1419.98 332.7"/><ellipse class="cls-3" cx="1407.83" cy="216.8" rx="29.14" ry="108" transform="translate(1099.25 1607.4) rotate(-86.24)"/><polygon class="cls-3" points="1665.78 378.9 1669.87 316.53 1643.31 314.78 1639.51 372.54 1665.78 378.9"/><ellipse class="cls-3" cx="1657.57" cy="300.64" rx="19.68" ry="72.92" transform="translate(1248.97 1934.95) rotate(-86.24)"/><polygon class="cls-3" points="1151.32 317.15 1148.58 244.33 1117.56 245.49 1120.1 312.92 1151.32 317.15"/><ellipse class="cls-3" cx="1132.41" cy="227.38" rx="85.02" ry="22.94" transform="translate(-7.74 42.68) rotate(-2.15)"/><polygon class="cls-3" points="727.03 405.87 724.29 333.04 693.28 334.21 695.81 401.64 727.03 405.87"/><ellipse class="cls-3" cx="708.13" cy="316.09" rx="85.02" ry="22.94" transform="translate(-11.37 26.81) rotate(-2.15)"/><polygon class="cls-3" points="1255.85 323.1 1267.7 142.49 1228.36 139.9 1217.38 307.13 1255.85 323.1"/><ellipse class="cls-3" cx="1249.36" cy="120.97" rx="39.98" ry="148.18" transform="translate(1046.78 1359.72) rotate(-86.24)"/><polygon class="cls-3" points="576.98 467.59 542.06 289.99 503.37 297.6 535.71 462.04 576.98 467.59"/><ellipse class="cls-3" cx="518.8" cy="273.91" rx="148.18" ry="39.98" transform="translate(-43.1 105.26) rotate(-11.13)"/><polygon class="cls-3" points="4813.84 97.38 4816.17 61.87 4801.05 60.87 4798.89 93.75 4813.84 97.38"/><ellipse class="cls-3" cx="4809.17" cy="52.82" rx="11.2" ry="41.52" transform="translate(4441.34 4848.2) rotate(-86.24)"/><polygon class="cls-3" points="4885.45 102.27 4887.02 78.29 4876.81 77.62 4875.35 99.82 4885.45 102.27"/><ellipse class="cls-3" cx="4882.3" cy="72.19" rx="7.56" ry="28.03" transform="translate(4490.35 4939.26) rotate(-86.24)"/><polygon class="cls-3" points="4688.8 97.34 4687.74 69.34 4675.82 69.79 4676.79 95.71 4688.8 97.34"/><ellipse class="cls-3" cx="4681.53" cy="62.83" rx="32.68" ry="8.82" transform="translate(0.94 175.82) rotate(-2.15)"/><polygon class="cls-3" points="4728.98 99.62 4733.54 30.2 4718.41 29.2 4714.19 93.49 4728.98 99.62"/><ellipse class="cls-3" cx="4726.48" cy="21.93" rx="15.37" ry="56.96" transform="translate(4394.9 4736.82) rotate(-86.24)"/><polygon class="cls-2" points="501.9 200.04 492.95 140.32 467.51 144.13 475.8 199.43 501.9 200.04"/><ellipse class="cls-2" cx="478.08" cy="127.84" rx="70.46" ry="19.01" transform="translate(-13.67 72.26) rotate(-8.52)"/><polygon class="cls-2" points="658.7 172.44 661.37 131.75 644.04 130.61 641.57 168.29 658.7 172.44"/><ellipse class="cls-2" cx="653.35" cy="121.38" rx="12.84" ry="47.57" transform="matrix(0.07, -1, 1, 0.07, 489.42, 765.38)"/><polygon class="cls-2" points="321.53 232.94 309.68 186.9 290.07 191.94 301.04 234.58 321.53 232.94"/><ellipse class="cls-2" cx="297.02" cy="178.34" rx="55.47" ry="14.97" transform="translate(-35.07 79.65) rotate(-14.43)"/><polygon class="cls-2" points="395.94 216.69 378.44 99.92 353 103.73 369.21 211.86 395.94 216.69"/><ellipse class="cls-2" cx="363.76" cy="88.75" rx="96.67" ry="26.09" transform="translate(-9.14 54.89) rotate(-8.52)"/><polygon class="cls-2" points="2674.06 209.74 2674.06 168.96 2656.69 168.96 2656.69 206.72 2674.06 209.74"/><ellipse class="cls-2" cx="2665.38" cy="159.14" rx="47.57" ry="12.84"/><polygon class="cls-2" points="2941.83 170.53 2941.83 129.75 2924.46 129.75 2924.46 167.51 2941.83 170.53"/><ellipse class="cls-2" cx="2933.14" cy="119.94" rx="47.57" ry="12.84"/><polygon class="cls-2" points="3402.79 220.25 3402.79 179.47 3385.42 179.47 3385.42 217.23 3402.79 220.25"/><ellipse class="cls-2" cx="3394.11" cy="169.66" rx="47.57" ry="12.84"/><polygon class="cls-2" points="2814.08 178.24 2814.08 127.55 2792.49 127.55 2792.49 174.49 2814.08 178.24"/><ellipse class="cls-2" cx="2803.29" cy="115.34" rx="59.14" ry="15.96"/><polygon class="cls-2" points="2390.34 296.2 2390.34 178.12 2364.61 178.12 2364.61 287.45 2390.34 296.2"/><ellipse class="cls-2" cx="2377.47" cy="164.9" rx="96.67" ry="26.09"/><polygon class="cls-2" points="3145.05 171.98 3145.05 53.9 3119.33 53.9 3119.33 163.23 3145.05 171.98"/><ellipse class="cls-2" cx="3132.19" cy="40.68" rx="96.67" ry="26.09"/><polygon class="cls-2" points="3637.48 319.84 3637.48 201.76 3611.76 201.76 3611.76 311.09 3637.48 319.84"/><ellipse class="cls-2" cx="3624.62" cy="188.54" rx="96.67" ry="26.09"/><polygon class="cls-2" points="5481.35 111.61 5481.35 60.92 5459.76 60.92 5459.76 107.86 5481.35 111.61"/><ellipse class="cls-2" cx="5470.55" cy="48.72" rx="59.14" ry="15.96"/><polygon class="cls-2" points="5341.17 220.25 5341.17 102.17 5315.45 102.17 5315.45 211.51 5341.17 220.25"/><ellipse class="cls-2" cx="5328.31" cy="88.95" rx="96.67" ry="26.09"/><path class="cls-7" d="M1482.61,1686.11c-44-87.25,59.11-293.79,206.1-289.6,135.68,3.86,233.33,185.11,194.56,274.13C1833.15,1785.75,1535.58,1791.13,1482.61,1686.11Z"/><path class="cls-7" d="M836,1696c-27.18-53.89,36.51-181.45,127.3-178.87,83.8,2.39,144.11,114.33,120.17,169.32C1052.53,1757.53,868.74,1760.85,836,1696Z"/><path class="cls-7" d="M77.41,1727C0,1602.2,172.64,1311.24,425,1320.29c232.92,8.35,404.33,267.65,339.68,393.18C681.08,1875.79,170.52,1877.15,77.41,1727Z"/><path class="cls-7" d="M1939.33,1692c-22.2-36,17-127.37,82.1-130,60.14-2.45,109,72.07,94.65,111.29C2097.51,1723.93,1966.05,1735.24,1939.33,1692Z"/><path class="cls-7" d="M4030.71,1682.89c44-87.25-59.11-293.79-206.1-289.6-135.68,3.86-233.33,185.11-194.57,274.13C3680.17,1782.53,3977.74,1787.91,4030.71,1682.89Z"/><path class="cls-7" d="M5687.87,1675.76c64.28-163.23-97.18-555.08-319.47-551.07-205.19,3.71-348.15,342.61-287.15,511.35C5160.12,1854.23,5610.5,1872.23,5687.87,1675.76Z"/><path class="cls-7" d="M3574,1688.73c22.19-36-16.95-127.37-82.11-130-60.14-2.45-109,72.07-94.64,111.29C3415.8,1720.71,3547.27,1732,3574,1688.73Z"/><path class="cls-7" d="M3342.83,1683.84c16.14-26.15-12.32-92.6-59.69-94.53-43.72-1.79-79.25,52.39-68.81,80.91C3227.83,1707.09,3323.41,1715.31,3342.83,1683.84Z"/><path class="cls-8" d="M216.9,1048.23a163.32,163.32,0,0,1,34.43-20.06,44.32,44.32,0,0,0,16.9-12.35c14.66-17.4,33.06-53.44-54.91-62.84,0,0-139.17-9.51-115.49,44.41A44.17,44.17,0,0,0,115,1016.92c10.92,6.81,31.4,19.79,48.65,32A45.21,45.21,0,0,0,216.9,1048.23Z"/><path class="cls-9" d="M380.3,947.77c14-10.44,31.07-21.25,49.69-29A63.83,63.83,0,0,0,454.39,901c21.16-25.12,47.72-77.14-79.26-90.71,0,0-200.88-13.72-166.69,64.1a63.62,63.62,0,0,0,24.8,28.2c15.77,9.82,45.32,28.56,70.23,46.24A65.28,65.28,0,0,0,380.3,947.77Z"/><path class="cls-10" d="M340.49,960.92s22.1,235,78.33,317.34c0,0,120.51,202.86-22.09,460"/><path class="cls-11" d="M643.78,1165.79s-36.35,85.8-106.74,119.45a102.8,102.8,0,0,0-35.57,27.7c-16.13,19.84-38.3,50.32-44.48,74.57"/><path class="cls-11" d="M187.85,1051.3a228.8,228.8,0,0,0,26.1,37.92,117.79,117.79,0,0,0,65.24,38.89c26.43,5.64,68,17.15,95.94,37.68"/><path class="cls-11" d="M281.49,1491.16s-6.4,63.55,47.42,94.67a186.1,186.1,0,0,1,31.19,22.94c22.22,20,56.52,52.47,65.39,70.31"/><path class="cls-8" d="M672.83,1156.76a162.92,162.92,0,0,1,34.43-20.07,44.19,44.19,0,0,0,16.9-12.34c14.66-17.4,33.06-53.45-54.91-62.85,0,0-139.17-9.5-115.49,44.41A44.06,44.06,0,0,0,571,1125.44c10.92,6.81,31.4,19.8,48.65,32A45.22,45.22,0,0,0,672.83,1156.76Z"/><path class="cls-8" d="M309.63,1483.41a163.09,163.09,0,0,1,34.42-20.07A44.26,44.26,0,0,0,361,1451c14.66-17.4,33.06-53.45-54.92-62.85,0,0-139.17-9.5-115.48,44.41a44,44,0,0,0,17.18,19.53c10.93,6.81,31.4,19.8,48.66,32A45.24,45.24,0,0,0,309.63,1483.41Z"/><circle class="cls-8" cx="621.62" cy="1165.79" r="17.62"/><circle class="cls-8" cx="365.08" cy="969.95" r="17.62"/><circle class="cls-8" cx="407.87" cy="1227.64" r="17.62"/><circle class="cls-8" cx="297.22" cy="1489.32" r="17.62"/><circle class="cls-8" cx="448.77" cy="1474.81" r="17.62"/><circle class="cls-8" cx="212.31" cy="1051.3" r="17.62"/><g class="cls-12"><path class="cls-8" d="M4600.59,1164a139.79,139.79,0,0,1,22.86-25.18,37.64,37.64,0,0,0,10.59-14.39c7.46-17.93,13.17-52-60.85-37,0,0-115.71,28-82.58,65.82a37.61,37.61,0,0,0,19,11.48c10.64,2.74,30.64,8,47.83,13.57A38.6,38.6,0,0,0,4600.59,1164Z"/><path class="cls-9" d="M4707.76,1040.24c8.71-12.1,19.82-25.28,33-36.34A54.6,54.6,0,0,0,4756,983.12c10.77-25.88,19-75-87.83-53.45,0,0-167,40.46-119.19,95a54.24,54.24,0,0,0,27.43,16.57c15.36,4,44.23,11.61,69,19.59A55.71,55.71,0,0,0,4707.76,1040.24Z"/><path class="cls-10" d="M4678.74,1061.17s78.38,185.58,145.32,238.15c0,0,150.22,134.13,100.23,380"/><path class="cls-11" d="M4978.24,1150s-7.53,79.18-56.17,124.66a87.46,87.46,0,0,0-21.83,31.69c-8,20.29-18.24,50.79-17,72.12"/><path class="cls-11" d="M4577.73,1174a196.15,196.15,0,0,0,31,24.15,100.51,100.51,0,0,0,63.09,14.89c23-2.21,59.78-3.53,87.76,6"/><path class="cls-11" d="M4767,1507.9s11.13,53.37,62.93,64.86a159,159,0,0,1,31.28,10.66c23.22,10.54,59.49,28.17,71.29,40.41"/><path class="cls-8" d="M4999.56,1135.15a139.49,139.49,0,0,1,22.86-25.18,37.75,37.75,0,0,0,10.59-14.4c7.46-17.93,13.17-52-60.85-37,0,0-115.71,28-82.57,65.83a37.65,37.65,0,0,0,19,11.48c10.65,2.73,30.65,8,47.83,13.56A38.59,38.59,0,0,0,4999.56,1135.15Z"/><path class="cls-8" d="M4787.91,1494.36a139.12,139.12,0,0,1,22.86-25.18,37.89,37.89,0,0,0,10.59-14.39c7.46-17.94,13.17-52-60.85-37,0,0-115.71,28-82.58,65.83a37.67,37.67,0,0,0,19,11.48c10.64,2.73,30.64,8,47.83,13.57A38.62,38.62,0,0,0,4787.91,1494.36Z"/><circle class="cls-13" cx="4726.81" cy="1192.43" r="21.93"/><circle class="cls-13" cx="4871.68" cy="1327.33" r="21.93"/><circle class="cls-13" cx="4704.89" cy="1044.5" r="21.93"/><circle class="cls-13" cx="4960.39" cy="1149.96" r="21.93"/><circle class="cls-13" cx="4915.53" cy="1587.79" r="21.93"/></g><g class="cls-12"><path class="cls-8" d="M2522.89,1066.82a139.52,139.52,0,0,1,30.44-15.17,37.71,37.71,0,0,0,15.09-9.57c13.46-14,31.15-43.67-43.26-56.59,0,0-118-15.88-100.83,31.36a37.56,37.56,0,0,0,13.54,17.6c8.92,6.41,25.63,18.61,39.64,30A38.6,38.6,0,0,0,2522.89,1066.82Z"/><path class="cls-9" d="M2667.67,990.4c12.51-8.12,27.65-16.37,43.94-21.89a54.55,54.55,0,0,0,21.78-13.81c19.43-20.21,45-63-62.43-81.69,0,0-170.33-22.93-145.56,45.27a54.34,54.34,0,0,0,19.55,25.4c12.88,9.25,37,26.86,57.22,43.31A55.75,55.75,0,0,0,2667.67,990.4Z"/><path class="cls-10" d="M2633,999.36s5.68,201.38,49,274.66c0,0,91.29,179.51-44.54,390.49"/><path class="cls-11" d="M2879.88,1190.81s-35.76,71-97.59,95.76a87.75,87.75,0,0,0-31.84,21.61c-14.85,16-35.44,40.71-42.06,61"/><path class="cls-11" d="M2498,1067.8a195.36,195.36,0,0,0,20.12,33.76,100.49,100.49,0,0,0,53.38,36.77c22.2,6.28,57,18.42,79.6,37.45"/><path class="cls-11" d="M2553.12,1447.66s-9,53.77,35.1,83.28a159.6,159.6,0,0,1,25.28,21.28c17.81,18.26,45.2,47.85,51.76,63.54"/><path class="cls-8" d="M2905.12,1184.74a139.59,139.59,0,0,1,30.45-15.16,37.82,37.82,0,0,0,15.09-9.57c13.45-14,31.14-43.67-43.26-56.59,0,0-118-15.88-100.84,31.36a37.62,37.62,0,0,0,13.54,17.6c8.93,6.41,25.64,18.61,39.65,30A38.59,38.59,0,0,0,2905.12,1184.74Z"/><path class="cls-8" d="M2577.52,1442.63a139.59,139.59,0,0,1,30.45-15.16,37.78,37.78,0,0,0,15.08-9.57c13.46-14,31.15-43.67-43.25-56.6,0,0-118-15.88-100.84,31.37a37.6,37.6,0,0,0,13.54,17.59c8.93,6.41,25.64,18.62,39.65,30A38.59,38.59,0,0,0,2577.52,1442.63Z"/><circle class="cls-8" cx="2615.41" cy="1010.37" r="29"/><circle class="cls-8" cx="2636.87" cy="1150.79" r="29"/><circle class="cls-8" cx="2574.52" cy="1446.27" r="29"/><circle class="cls-8" cx="2863.68" cy="1190.81" r="29"/></g><path class="cls-8" d="M2069.35,1387.15a73.34,73.34,0,0,1,15.39-9,19.73,19.73,0,0,0,7.56-5.52c6.56-7.78,14.79-23.9-24.55-28.1,0,0-62.24-4.25-51.64,19.86a19.7,19.7,0,0,0,7.68,8.73c4.89,3,14,8.85,21.76,14.33A20.22,20.22,0,0,0,2069.35,1387.15Z"/><path class="cls-8" d="M2142.42,1342.23a105.44,105.44,0,0,1,22.22-13,28.58,28.58,0,0,0,10.91-8c9.46-11.23,21.34-34.5-35.45-40.56,0,0-89.83-6.14-74.54,28.66a28.44,28.44,0,0,0,11.09,12.61c7.06,4.39,20.27,12.77,31.41,20.68A29.19,29.19,0,0,0,2142.42,1342.23Z"/><path class="cls-8" d="M2104.27,1348c-11-7.83-24.21-16.18-31.08-20.46a34.92,34.92,0,0,1-13.62-15.53c-4.34-9.88-1.75-16.94,1.19-21.12,6.56-9.34,21.82-14.75,46.66-16.54a264.67,264.67,0,0,1,33.13-.18l.25,0c27.38,2.92,43,10.13,47.81,22,3.5,8.72.72,18.83-8.05,29.24a35.26,35.26,0,0,1-13.42,9.8,98.14,98.14,0,0,0-20.81,12.15h0a35.64,35.64,0,0,1-42.06.56ZM2138.5,1337a110.94,110.94,0,0,1,23.63-13.75,22.06,22.06,0,0,0,8.41-6.14c3.11-3.69,8-10.67,5.91-15.92-1.25-3.12-7.36-10.72-36.91-13.9a255.68,255.68,0,0,0-31.32.19c-27.61,2-34.89,8.37-36.75,11-1,1.46-1.93,3.72.09,8.32a21.74,21.74,0,0,0,8.56,9.68c7,4.36,20.41,12.87,31.73,20.9a22.6,22.6,0,0,0,26.65-.38Z"/><path class="cls-8" d="M2149.76,1704.86a9.15,9.15,0,0,0,8-4.72c15.07-27.16,25-55.31,29.49-83.65a224.12,224.12,0,0,0,.42-68.1c-5.71-38.39-19.58-62.07-20.16-63.06l-.32-.49c-23.52-34.44-33.37-136.56-33.47-137.59a9.17,9.17,0,1,0-18.25,1.72c.41,4.37,10.35,107.34,36.38,145.91,1.25,2.22,13,23.7,17.8,57,6.76,46.86-2.64,93.73-27.92,139.31a9.17,9.17,0,0,0,8,13.62Z"/><path class="cls-8" d="M2176.71,1545.42a6.54,6.54,0,0,0,6.34-4.94c1.9-7.43,8.52-18.38,18.63-30.83a39.3,39.3,0,0,1,13.65-10.61c33.33-15.93,50.23-55.11,50.94-56.77a6.55,6.55,0,0,0-12.06-5.11h0c-.16.36-15.73,36.3-44.53,50.07a52.07,52.07,0,0,0-18.16,14.16c-8,9.83-18.14,24-21.16,35.86a6.58,6.58,0,0,0,6.35,8.17Z"/><path class="cls-8" d="M2140.1,1446.27a6.55,6.55,0,0,0,3.88-11.83c-13.11-9.64-31.93-15.1-45.41-18a46.3,46.3,0,0,1-25.54-15.23,97.25,97.25,0,0,1-10.87-15.74,6.55,6.55,0,0,0-11.61,6,109,109,0,0,0,12.49,18.17,59.54,59.54,0,0,0,32.79,19.56c10,2.13,28.56,7,40.39,15.71A6.53,6.53,0,0,0,2140.1,1446.27Z"/><path class="cls-8" d="M2162.63,1675.8a6.48,6.48,0,0,0,2.91-.69,6.55,6.55,0,0,0,2.95-8.78c-3.45-6.93-13.79-18.17-30.73-33.39a89.86,89.86,0,0,0-15.05-11.06c-20.17-11.66-18-35.76-18-36a6.55,6.55,0,0,0-13-1.31c-.13,1.33-3,32.81,24.45,48.66a77,77,0,0,1,12.85,9.46c14.82,13.32,25.19,24.34,27.75,29.49A6.54,6.54,0,0,0,2162.63,1675.8Z"/><path class="cls-8" d="M2273.23,1435.68a73.34,73.34,0,0,1,15.39-9,19.8,19.8,0,0,0,7.56-5.52c6.56-7.78,14.79-23.9-24.55-28.1,0,0-62.24-4.25-51.65,19.86a19.84,19.84,0,0,0,7.69,8.73c4.88,3,14,8.85,21.75,14.32A20.23,20.23,0,0,0,2273.23,1435.68Z"/><path class="cls-8" d="M2110.81,1581.75a73,73,0,0,1,15.4-9,19.8,19.8,0,0,0,7.56-5.52c6.55-7.78,14.78-23.9-24.56-28.11,0,0-62.23-4.25-51.64,19.86a19.73,19.73,0,0,0,7.68,8.74c4.89,3,14.05,8.85,21.76,14.32A20.22,20.22,0,0,0,2110.81,1581.75Z"/><circle class="cls-8" cx="2139.29" cy="1348.06" r="17.62"/><circle class="cls-8" cx="2109.19" cy="1579.48" r="17.62"/><circle class="cls-8" cx="2255.23" cy="1432.64" r="17.62"/><circle class="cls-8" cx="2152.76" cy="1460.98" r="17.62"/><circle class="cls-8" cx="2190.08" cy="1578.67" r="17.62"/><path class="cls-8" d="M3196.54,1382.59a73.43,73.43,0,0,0-15.4-9,19.69,19.69,0,0,1-7.55-5.52c-6.56-7.78-14.79-23.9,24.55-28.1,0,0,62.23-4.25,51.64,19.86a19.65,19.65,0,0,1-7.68,8.73c-4.89,3.05-14,8.85-21.76,14.33A20.22,20.22,0,0,1,3196.54,1382.59Z"/><path class="cls-8" d="M3123.47,1337.67a105.44,105.44,0,0,0-22.22-13,28.47,28.47,0,0,1-10.91-8c-9.46-11.23-21.34-34.49,35.44-40.56,0,0,89.83-6.14,74.54,28.66a28.38,28.38,0,0,1-11.09,12.61c-7.05,4.39-20.26,12.78-31.4,20.68A29.19,29.19,0,0,1,3123.47,1337.67Z"/><path class="cls-8" d="M3141,1350.07a35.8,35.8,0,0,1-21.44-7.15h0a98.14,98.14,0,0,0-20.81-12.15,35.16,35.16,0,0,1-13.42-9.8c-8.77-10.41-11.55-20.52-8-29.24,4.79-11.91,20.43-19.13,47.81-22l.25,0a261.39,261.39,0,0,1,33.13.17c24.84,1.8,40.1,7.21,46.66,16.54,2.94,4.19,5.53,11.24,1.19,21.12A34.92,34.92,0,0,1,3192.7,1323c-6.87,4.28-20,12.63-31.08,20.46A35.56,35.56,0,0,1,3141,1350.07Zm-13.61-17.65a22.6,22.6,0,0,0,26.65.38c11.31-8,24.74-16.54,31.73-20.9a21.74,21.74,0,0,0,8.56-9.68c2-4.6,1.1-6.86.08-8.31-1.85-2.64-9.14-9-36.74-11a251.26,251.26,0,0,0-31.32-.19c-29.55,3.17-35.66,10.77-36.91,13.89-2.11,5.25,2.8,12.23,5.91,15.92a22,22,0,0,0,8.41,6.14,110.94,110.94,0,0,1,23.63,13.75Z"/><path class="cls-8" d="M3116.13,1700.3a9.15,9.15,0,0,1-8-4.72c-15.07-27.16-25-55.31-29.49-83.65a224.06,224.06,0,0,1-.42-68.09c5.7-38.4,19.57-62.08,20.16-63.07.1-.16.2-.33.31-.48,23.53-34.45,33.38-136.57,33.47-137.6a9.17,9.17,0,0,1,18.26,1.72c-.41,4.37-10.35,107.34-36.38,145.92-1.25,2.21-13,23.7-17.8,57-6.76,46.86,2.64,93.73,27.92,139.31a9.17,9.17,0,0,1-8,13.62Z"/><path class="cls-8" d="M3089.18,1540.86a6.56,6.56,0,0,1-6.35-4.93c-1.89-7.44-8.51-18.39-18.62-30.83a39.21,39.21,0,0,0-13.65-10.62c-33.33-15.93-50.23-55.11-50.94-56.77a6.55,6.55,0,0,1,12.06-5.11h0c.15.36,15.73,36.3,44.53,50.07a52.19,52.19,0,0,1,18.16,14.16c8,9.83,18.14,24,21.16,35.86a6.58,6.58,0,0,1-6.35,8.17Z"/><path class="cls-8" d="M3125.79,1441.71a6.55,6.55,0,0,1-3.89-11.83c13.12-9.64,31.94-15.09,45.42-18a46.3,46.3,0,0,0,25.54-15.23,97.06,97.06,0,0,0,10.86-15.74,6.55,6.55,0,0,1,11.62,6,109,109,0,0,1-12.49,18.17,59.47,59.47,0,0,1-32.8,19.56c-10,2.13-28.56,7-40.39,15.72A6.47,6.47,0,0,1,3125.79,1441.71Z"/><path class="cls-8" d="M3103.26,1671.24a6.54,6.54,0,0,1-5.86-9.46c3.45-6.94,13.79-18.18,30.73-33.4a90.2,90.2,0,0,1,15-11.06c20.17-11.66,18-35.76,18-36a6.55,6.55,0,1,1,13-1.32c.14,1.34,3,32.81-24.44,48.66a77.57,77.57,0,0,0-12.85,9.46c-14.82,13.32-25.2,24.34-27.75,29.49A6.55,6.55,0,0,1,3103.26,1671.24Z"/><path class="cls-8" d="M2992.66,1431.12a73.34,73.34,0,0,0-15.39-9,19.65,19.65,0,0,1-7.56-5.52c-6.56-7.78-14.79-23.9,24.55-28.1,0,0,62.24-4.25,51.64,19.86a19.65,19.65,0,0,1-7.68,8.73c-4.89,3.05-14,8.85-21.76,14.33A20.22,20.22,0,0,1,2992.66,1431.12Z"/><path class="cls-8" d="M3155.08,1577.19a73.43,73.43,0,0,0-15.4-9,19.8,19.8,0,0,1-7.56-5.52c-6.55-7.78-14.78-23.9,24.56-28.1,0,0,62.23-4.25,51.64,19.86a19.78,19.78,0,0,1-7.69,8.73c-4.88,3-14,8.85-21.75,14.32A20.22,20.22,0,0,1,3155.08,1577.19Z"/><circle class="cls-8" cx="3150.44" cy="1339.71" r="17.62"/><circle class="cls-8" cx="3015.54" cy="1435.16" r="17.62"/><circle class="cls-8" cx="3088.93" cy="1517.34" r="17.62"/><circle class="cls-8" cx="3174.32" cy="1575.56" r="17.62"/><path class="cls-8" d="M4498.77,1119a139.15,139.15,0,0,0-29.39-17.13,37.77,37.77,0,0,1-14.42-10.53c-12.52-14.86-28.22-45.62,46.86-53.64,0,0,118.79-8.12,98.57,37.9a37.62,37.62,0,0,1-14.66,16.67c-9.33,5.81-26.81,16.89-41.53,27.34A38.59,38.59,0,0,1,4498.77,1119Z"/><path class="cls-9" d="M4359.3,1033.29c-11.95-8.92-26.51-18.15-42.41-24.73a54.54,54.54,0,0,1-20.83-15.2c-18.06-21.44-40.73-65.85,67.66-77.43,0,0,171.45-11.71,142.27,54.72a54.33,54.33,0,0,1-21.17,24.06c-13.46,8.38-38.68,24.38-59.94,39.46A55.73,55.73,0,0,1,4359.3,1033.29Z"/><path class="cls-10" d="M4393.28,1044.5s-18.86,200.57-66.86,270.86c0,0-102.85,173.14,18.86,392.57"/><path class="cls-11" d="M4134.42,1219.36s31,73.23,91.1,102a87.75,87.75,0,0,1,30.36,23.65c13.77,16.94,32.69,43,38,63.64"/><path class="cls-11" d="M4523.57,1121.65a196.15,196.15,0,0,1-22.29,32.36,100.56,100.56,0,0,1-55.68,33.2c-22.56,4.81-58.07,14.64-81.88,32.15"/><path class="cls-11" d="M4443.64,1497.07s5.46,54.25-40.47,80.8a159.86,159.86,0,0,0-26.63,19.58c-19,17-48.24,44.78-55.81,60"/><path class="cls-8" d="M4109.62,1211.66a139.32,139.32,0,0,0-29.38-17.13,37.72,37.72,0,0,1-14.43-10.54c-12.51-14.85-28.22-45.61,46.87-53.64,0,0,118.79-8.11,98.57,37.91a37.64,37.64,0,0,1-14.67,16.67c-9.32,5.81-26.8,16.89-41.52,27.34A38.62,38.62,0,0,1,4109.62,1211.66Z"/><path class="cls-8" d="M4419.62,1490.46a139.32,139.32,0,0,0-29.38-17.13,37.72,37.72,0,0,1-14.43-10.54c-12.51-14.85-28.22-45.61,46.87-53.64,0,0,118.79-8.11,98.57,37.91a37.64,37.64,0,0,1-14.67,16.67c-9.32,5.81-26.8,16.89-41.52,27.34A38.62,38.62,0,0,1,4419.62,1490.46Z"/><circle class="cls-13" cx="4343.35" cy="1240.94" r="21.93"/><circle class="cls-13" cx="4404.21" cy="1054.84" r="21.93"/><circle class="cls-13" cx="4307.75" cy="1490.33" r="21.93"/><circle class="cls-13" cx="4280.86" cy="1378.43" r="21.93"/><rect x="-86.46" y="1629.52" width="5842.29" height="466.81"/></svg>